HIERARCHY
ROOT hip
{
  OFFSET 0 0 0
  CHANNELS 6 Xposition Yposition Zposition Zrotation Yrotation Xrotation
  JOINT abdomen
  {
    OFFSET 0 20.6881 -0.73152
    CHANNELS 3 Zrotation Xrotation Yrotation
    JOINT chest
    {
      OFFSET 0 11.7043 -0.48768
      CHANNELS 3 Zrotation Xrotation Yrotation
      JOINT neck
      {
        OFFSET 0 22.1894 -2.19456
        CHANNELS 3 Zrotation Xrotation Yrotation
        JOINT head
        {
          OFFSET -0.24384 7.07133 1.2192
          CHANNELS 3 Zrotation Xrotation Yrotation
          JOINT leftEye
          {
            OFFSET 4.14528 8.04674 8.04672
            CHANNELS 3 Zrotation Xrotation Yrotation
            End Site
            {
              OFFSET 1 0 0
            }
          }
          JOINT rightEye
          {
            OFFSET -3.6576 8.04674 8.04672
            CHANNELS 3 Zrotation Xrotation Yrotation
            End Site
            {
              OFFSET 1 0 0
            }
          }
        }
      }
      JOINT rCollar
      {
        OFFSET -2.68224 19.2634 -4.8768
        CHANNELS 3 Zrotation Xrotation Yrotation
        JOINT rShldr
        {
          OFFSET -8.77824 -1.95073 1.46304
          CHANNELS 3 Zrotation Xrotation Yrotation
          JOINT rForeArm
          {
            OFFSET -28.1742 -1.7115 0.48768
            CHANNELS 3 Zrotation Xrotation Yrotation
            JOINT rHand
            {
              OFFSET -22.5879 0.773209 7.07136
              CHANNELS 3 Zrotation Xrotation Yrotation
              JOINT rThumb1
              {
                OFFSET -1.2192 -0.487915 3.41376
                CHANNELS 3 Zrotation Xrotation Yrotation
                JOINT rThumb2
                {
                  OFFSET -3.37035 -0.52449 3.41376
                  CHANNELS 3 Zrotation Xrotation Yrotation
                  End Site
                  {
                    OFFSET -1.78271 -1.18214 1.43049
                  }
                }
              }
              JOINT rIndex1
              {
                OFFSET -7.75947 0.938293 5.60832
                CHANNELS 3 Zrotation Xrotation Yrotation
                JOINT rIndex2
                {
                  OFFSET -2.54057 -0.884171 1.56538
                  CHANNELS 3 Zrotation Xrotation Yrotation
                  End Site
                  {
                    OFFSET -1.62519 -0.234802 1.16502
                  }
                }
              }
              JOINT rMid1
              {
                OFFSET -8.24714 1.18213 3.41376
                CHANNELS 3 Zrotation Xrotation Yrotation
                JOINT rMid2
                {
                  OFFSET -3.10165 -0.590103 1.0647
                  CHANNELS 3 Zrotation Xrotation Yrotation
                  End Site
                  {
                    OFFSET -2.48547 -0.328903 0.83742
                  }
                }
              }
              JOINT rRing1
              {
                OFFSET -8.82822 0.546677 1.51678
                CHANNELS 3 Zrotation Xrotation Yrotation
                JOINT rRing2
                {
                  OFFSET -2.60934 -0.819778 -0.0198488
                  CHANNELS 3 Zrotation Xrotation Yrotation
                  End Site
                  {
                    OFFSET -2.33842 -0.294052 0.168128
                  }
                }
              }
              JOINT rPinky1
              {
                OFFSET -8.27202 -0.0477905 -0.4584
                CHANNELS 3 Zrotation Xrotation Yrotation
                JOINT rPinky2
                {
                  OFFSET -1.82734 -0.647385 -0.700984
                  CHANNELS 3 Zrotation Xrotation Yrotation
                  End Site
                  {
                    OFFSET -1.69225 -0.51767 -0.607171
                  }
                }
              }
            }
          }
        }
      }
      JOINT lCollar
      {
        OFFSET 2.68224 19.2634 -4.8768
        CHANNELS 3 Zrotation Xrotation Yrotation
        JOINT lShldr
        {
          OFFSET 8.77824 -1.95073 1.46304
          CHANNELS 3 Zrotation Xrotation Yrotation
          JOINT lForeArm
          {
            OFFSET 28.1742 -1.7115 0.48768
            CHANNELS 3 Zrotation Xrotation Yrotation
            JOINT lHand
            {
              OFFSET 22.5879 0.773209 7.07136
              CHANNELS 3 Zrotation Xrotation Yrotation
              JOINT lThumb1
              {
                OFFSET 1.2192 -0.487915 3.41376
                CHANNELS 3 Zrotation Xrotation Yrotation
                JOINT lThumb2
                {
                  OFFSET 3.37035 -0.52449 3.41376
                  CHANNELS 3 Zrotation Xrotation Yrotation
                  End Site
                  {
                    OFFSET 1.78271 -1.18214 1.43049
                  }
                }
              }
              JOINT lIndex1
              {
                OFFSET 7.75947 0.938293 5.60832
                CHANNELS 3 Zrotation Xrotation Yrotation
                JOINT lIndex2
                {
                  OFFSET 2.54057 -0.884171 1.56538
                  CHANNELS 3 Zrotation Xrotation Yrotation
                  End Site
                  {
                    OFFSET 1.62519 -0.234802 1.16502
                  }
                }
              }
              JOINT lMid1
              {
                OFFSET 8.24714 1.18213 3.41376
                CHANNELS 3 Zrotation Xrotation Yrotation
                JOINT lMid2
                {
                  OFFSET 3.10165 -0.590103 1.0647
                  CHANNELS 3 Zrotation Xrotation Yrotation
                  End Site
                  {
                    OFFSET 2.48547 -0.328903 0.83742
                  }
                }
              }
              JOINT lRing1
              {
                OFFSET 8.82822 0.546677 1.51678
                CHANNELS 3 Zrotation Xrotation Yrotation
                JOINT lRing2
                {
                  OFFSET 2.60934 -0.819778 -0.0198488
                  CHANNELS 3 Zrotation Xrotation Yrotation
                  End Site
                  {
                    OFFSET 2.33842 -0.294052 0.168128
                  }
                }
              }
              JOINT lPinky1
              {
                OFFSET 8.27202 -0.0477905 -0.4584
                CHANNELS 3 Zrotation Xrotation Yrotation
                JOINT lPinky2
                {
                  OFFSET 1.82734 -0.647385 -0.700984
                  CHANNELS 3 Zrotation Xrotation Yrotation
                  End Site
                  {
                    OFFSET 1.69225 -0.51767 -0.607171
                  }
                }
              }
            }
          }
        }
      }
    }
  }
  JOINT rButtock
  {
    OFFSET -8.77824 4.35084 1.2192
    CHANNELS 3 Zrotation Xrotation Yrotation
    JOINT rThigh
    {
      OFFSET 0 -1.70687 -2.19456
      CHANNELS 3 Zrotation Xrotation Yrotation
      JOINT rShin
      {
        OFFSET 0 -36.8199 0.73152
        CHANNELS 3 Zrotation Xrotation Yrotation
        JOINT rFoot
        {
          OFFSET 0.73152 -45.1104 -5.12064
          CHANNELS 3 Zrotation Xrotation Yrotation
          End Site
          {
            OFFSET -1.1221 -3.69964 12.103
          }
        }
      }
    }
  }
  JOINT lButtock
  {
    OFFSET 8.77824 4.35084 1.2192
    CHANNELS 3 Zrotation Xrotation Yrotation
    JOINT lThigh
    {
      OFFSET 0 -1.70687 -2.19456
      CHANNELS 3 Zrotation Xrotation Yrotation
      JOINT lShin
      {
        OFFSET 0 -36.8199 0.73152
        CHANNELS 3 Zrotation Xrotation Yrotation
        JOINT lFoot
        {
          OFFSET -0.73152 -45.1104 -5.12064
          CHANNELS 3 Zrotation Xrotation Yrotation
          End Site
          {
            OFFSET 1.1221 -3.69964 12.103
          }
        }
      }
    }
  }
}
MOTION
Frames:	4
Frame Time:	0.00833333
-35.713699999999996 77.9459 -1.6065 6.619947 -23.573982 2.642107 -0.320191 -1.412024 102.228995 -6.120656 0.432639 -74.208395 7.141974 27.671274 103.949117 -38.303702 14.437267 -97.344011 -0.000828 -0.0 0.001722 0.004603 -0.0 -1.9e-05 0.02356 -0.138639 -0.030559 66.554608 -3.005923 5.28465 -162.528117 -19.074316 86.339005 144.148593 -49.962439 129.175987 9.390211 -9.381021 -0.682071 -3.304442 1.079701 -3.643468 -19.170004 24.114559 13.381335 -5.91346 19.07069 4.29254 -171.807237 -40.921854 145.169004 -11.010364 32.152185 8.917515 -145.060711 -3.308719 -178.08508 10.533386 0.363849 -8.947953 -124.851242 -29.03781 -122.620625 -21.896835 -38.278668 -24.017147 159.220035 -48.028295 -170.416234 -144.631142 34.017331 171.347821 129.572038 -10.496061 9.573064 -173.484785 -70.44679 -150.654041 8.203039 7.848566 -1.806326 -11.257885 -12.24395 2.842726 77.667195 43.0298 -64.53862 119.047279 42.39216 -90.377501 4.104502 11.116598 -2.537057 163.284536 -4.931915 -143.36447 145.119279 0.266956 179.214128 -11.902545 29.602664 5.638099 26.564221 -38.860949 25.605751 163.004431 65.270159 149.065698 0.001147 0.0002 -0.0 -23.348249 -47.221543 -180.0 -27.707374 -72.370595 171.504536 50.33027 -46.501296 -27.014066 0.000432 0.0002 -0.000556 -14.442331 -30.985827 -74.341513 -52.628082 16.962622 62.263609 126.674566 -0.706105 -6.278822
-37.2113 78.249 -1.2987 6.947996 -19.526801 3.710075 1.903767 1.364239 0.033988 -1.325755 -8.838915 27.803544 -15.366471 28.163563 -86.238076 42.294568 13.993335 90.879708 0.000473 -0.0 -0.001869 0.000473 -0.0 -0.001869 -40.04881 -86.055341 -61.580483 76.808296 42.09412 -72.069771 -18.496891 34.800635 77.190375 -3.242372 26.466126 2.485769 4.531544 -4.513815 -0.521463 -86.830581 24.481483 78.390462 -83.73248 42.330603 69.990095 -113.162057 45.64323 85.801383 0.541352 -1.589752 -0.296705 80.541546 -78.000174 52.084242 -74.841852 72.95971 92.828478 5.112573 28.347517 -0.716636 0.096538 0.259066 0.089073 -158.798315 53.261402 -149.991844 13.744074 42.431298 -15.570237 -115.386433 -65.598833 -55.739592 79.339857 -46.870971 -62.798279 -68.611257 -86.176635 -51.461749 169.31842 -7.001393 -89.92188 137.642956 8.857176 -68.660015 117.618525 28.169038 -99.447932 -12.263473 -10.198391 8.20667 160.937046 -7.488016 -143.368684 168.008242 -19.063818 -143.878516 -0.001031 0.063714 -0.020424 156.586073 -34.931477 -175.976375 110.054155 -41.783436 108.1286 153.402122 33.994031 146.372288 -179.980388 75.74937 -0.013418 162.708806 27.829304 -34.124415 -73.344306 25.869263 -4.573238 54.711706 40.027317 35.598934 179.959233 75.749367 0.033542 161.889405 41.908976 -180.0 9.669553 -55.42884 -142.325797 -120.762096 8.89128 -1.307494
-38.8765 78.7183 -0.8989 7.170042 -15.230781 4.294137 -0.711678 -0.81511 83.575285 -6.460145 -1.944574 -56.012598 4.889439 31.762447 132.6473 -34.224186 31.289204 -112.512104 0.000549 0.0 0.00156 0.000549 0.0 0.00156 -155.09738 -0.941126 161.282042 136.697824 -11.905546 173.831016 -98.788927 8.501113 71.500459 33.782833 -51.644714 24.958085 -169.571633 -7.253998 89.930024 -133.126091 10.251128 65.557081 -161.900481 -36.242703 122.690354 -164.712674 -26.252818 118.915626 2.099897 -6.305423 -1.081889 -163.346785 -4.921179 143.366219 -145.120704 0.267723 -179.212556 11.191782 13.761218 -7.375821 -113.838395 -39.283338 -111.846205 70.216676 84.494684 -31.209098 85.537133 68.183014 -88.689056 -84.913046 -31.081092 -65.17889 128.790246 0.121924 17.072046 -163.584021 -72.972523 -141.402038 -7.540893 -7.534177 0.671156 43.019851 29.827165 -35.20526 117.902222 27.950448 -99.67854 -6.858164 0.040567 7.350056 -0.541223 -1.589933 0.294858 -4.267155 -3.129258 0.413909 73.163213 -72.142838 90.197965 78.547048 83.214751 -96.384964 23.38872 -36.349549 22.494323 146.438074 10.969758 143.254147 179.986959 75.749318 0.01073 162.141793 27.847136 -145.404541 -32.578297 -74.997503 -27.68479 16.858225 19.014022 153.043882 -179.983035 75.748677 -0.011608 162.755264 43.262797 -155.633223 -34.077474 -51.859321 -143.87244 175.696204 -61.817318 86.812396
-40.6214 79.2903 -0.505 7.475916 -10.73702 4.894126 1.292761 1.272391 -0.0 -0.940156 -8.670952 27.651465 -16.035634 26.808037 -79.779466 42.793129 10.118398 90.594127 -0.001997 0.0 -0.000853 -0.001997 0.0 -0.000853 -159.220188 -48.028404 170.415719 -38.552979 -6.017627 -33.923639 -162.382733 6.584847 -116.986575 -4.292887 28.432226 2.371237 81.971208 -50.092405 32.72296 -12.211731 -61.04987 -38.597089 -0.327251 0.530285 0.184373 2.316413 12.493554 2.297994 -160.888766 -7.337475 143.346098 -18.273713 42.119902 14.875039 -145.100689 -1.521066 -178.648972 -70.857088 87.697101 84.266542 0.709454 1.877603 0.653746 -137.846899 -13.865097 -135.512155 85.537479 68.181949 -88.68885 -4.847402 16.595693 -60.552555 96.983608 40.452933 98.803 -122.0379 -82.330097 -102.929031 2.608054 2.554692 -0.45781 140.772191 -46.248053 -118.257156 152.105078 -18.556828 -121.367256 -4.202602 13.990568 7.134273 57.867166 59.218174 -50.525732 -5.365792 -5.832883 0.559602 0.021063 -1.725905 0.543412 155.976185 -13.749539 -173.484671 156.867923 55.541807 150.326234 -11.986404 31.264305 -5.115564 -179.993295 75.748689 -0.005516 159.126349 32.481338 35.378182 9.13218 55.950124 25.956736 20.526823 -63.255346 -54.273359 0.000418 0.000952 0.000627 -14.319526 -26.958465 28.682936 53.818334 38.971835 92.567055 -29.527507 28.839679 -159.157802
